<?xml version="1.0" encoding="utf-8"?>
<!-- Generator: Adobe Illustrator 24.1.3, SVG Export Plug-In . SVG Version: 6.00 Build 0)  -->
<svg version="1.1" xmlns="http://www.w3.org/2000/svg" xmlns:xlink="http://www.w3.org/1999/xlink" x="0px" y="0px"
	 viewBox="0 0 443.37 566.93" style="enable-background:new 0 0 443.37 566.93;" xml:space="preserve">
<style type="text/css">
	.st0{fill:#5F5F5E;}
	.st1{fill:#385364;}
	.st2{fill:#E52424;}
	.st3{fill:#C24E54;}
</style>
<g id="Layer_1">
	<g>
		<g>
			<rect x="110.6" y="480.03" class="st0" width="4.87" height="3.98"/>
			<rect x="117.52" y="480.03" class="st0" width="4.87" height="3.98"/>
			<path class="st0" d="M143.29,486.6c-0.36-0.07-0.74-0.12-1.15-0.16c-0.41-0.03-0.86-0.05-1.36-0.05h-6.74
				c-0.56,0-1.06,0.01-1.51,0.05c-0.44,0.04-0.83,0.09-1.14,0.16c-0.96,0.16-1.65,0.59-2.06,1.29c-0.42,0.7-0.63,1.74-0.63,3.11
				v4.85c0,0.73-0.29,1.19-0.86,1.4c-0.13,0.03-0.35,0.05-0.68,0.07c-0.3,0.02-0.57,0.03-0.84,0.04v-0.03h-1.89V486.4h-11.5
				c-0.59,0-1.1,0.01-1.54,0.05c-0.44,0.04-0.81,0.09-1.11,0.16c-0.97,0.16-1.66,0.59-2.07,1.28c-0.41,0.69-0.62,1.73-0.62,3.12
				v6.29c0,0.72,0.05,1.33,0.16,1.85s0.27,0.96,0.5,1.31c0.23,0.35,0.53,0.64,0.88,0.85c0.36,0.22,0.79,0.38,1.31,0.49h-0.02
				c0.55,0.08,1.38,0.12,2.5,0.12h13.26h0.12h1.91c0.66,0,1.2-0.01,1.64-0.03c0.44-0.02,0.79-0.07,1.07-0.13
				c0.45-0.07,0.85-0.29,1.19-0.67c0.34-0.38,0.63-0.88,0.86-1.5c0.64,1.56,1.71,2.33,3.2,2.33h4.58c0.56,0,1.06-0.01,1.5-0.03
				c0.44-0.02,0.81-0.07,1.13-0.13c0.92-0.23,1.6-0.69,2.04-1.37c0.44-0.68,0.67-1.71,0.67-3.09V491c0-1.42-0.22-2.47-0.67-3.14
				C145.01,487.18,144.29,486.76,143.29,486.6z M119.56,497.37h-4.93c-1.18,0-1.84-0.19-1.99-0.57c-0.1-0.19-0.14-0.48-0.14-0.87
				v-3.51c0-0.38,0.02-0.67,0.05-0.86c0.03-0.2,0.11-0.34,0.23-0.44c0.12-0.09,0.29-0.15,0.51-0.16c0.23-0.01,0.54-0.02,0.93-0.02
				h5.34V497.37z M141.24,495.93c0,0.42-0.04,0.72-0.12,0.89c-0.1,0.21-0.3,0.36-0.63,0.44c-0.32,0.07-0.76,0.11-1.32,0.11h-4.7
				c-0.3-0.11-0.53-0.28-0.68-0.52c-0.15-0.24-0.23-0.56-0.23-0.96v-3.47c0-0.92,0.42-1.41,1.25-1.48h5.59
				c0.56,0.2,0.84,0.69,0.84,1.48V495.93z"/>
			<path class="st0" d="M180.76,495.89c0,0.8-0.31,1.28-0.92,1.44h-1.07h-0.31h-3.53l1.68-6.43c0.11-0.43,0.19-0.83,0.25-1.2
				c0.05-0.37,0.08-0.7,0.08-1.02c0-0.65-0.14-1.13-0.43-1.46c-0.29-0.33-0.74-0.54-1.36-0.65c-0.3-0.08-0.67-0.13-1.1-0.15
				c-0.43-0.02-0.93-0.03-1.51-0.03h-11.07c-0.56,0-1.06,0.01-1.49,0.03c-0.43,0.02-0.8,0.07-1.1,0.15
				c-0.61,0.11-1.07,0.33-1.36,0.65c-0.3,0.33-0.44,0.81-0.44,1.46c0,0.31,0.03,0.65,0.09,1.02c0.06,0.37,0.15,0.76,0.26,1.2
				c0.12,0.47,0.26,0.99,0.4,1.54c0.14,0.55,0.29,1.12,0.44,1.68c0.15,0.57,0.29,1.13,0.43,1.68c0.14,0.55,0.27,1.06,0.39,1.52
				h-3.61h-0.14h-0.94c-0.61-0.16-0.92-0.64-0.92-1.44v-14.3h-4.87v15.66c0,0.68,0.04,1.27,0.13,1.77c0.09,0.51,0.23,0.94,0.43,1.3
				c0.2,0.36,0.46,0.65,0.78,0.87c0.32,0.22,0.72,0.39,1.18,0.5h-0.02c0.34,0.07,0.75,0.12,1.22,0.16c0.47,0.04,1.02,0.06,1.63,0.06
				h1.37h0.14h22.98h0.31h1.52c1.2,0,2.15-0.07,2.83-0.22h-0.02c0.46-0.11,0.85-0.28,1.17-0.5c0.31-0.22,0.57-0.51,0.77-0.87
				c0.2-0.36,0.34-0.79,0.43-1.3c0.09-0.51,0.13-1.1,0.13-1.77v-15.66h-4.85V495.89z M171.3,492.52l-0.8,3.03l0.02-0.02
				c-0.18,0.76-0.53,1.29-1.07,1.58c-0.25,0.15-0.72,0.23-1.42,0.23h-2.01c-0.7,0-1.17-0.07-1.42-0.23
				c-0.26-0.15-0.48-0.35-0.67-0.61c-0.19-0.26-0.32-0.58-0.4-0.98l0.02,0.02c-0.12-0.5-0.25-1-0.39-1.51
				c-0.14-0.51-0.27-1.01-0.41-1.51c-0.25-1.05,0.05-1.58,0.88-1.58h6.77C171.25,490.94,171.54,491.47,171.3,492.52z"/>
			<rect x="188.96" y="481.59" class="st0" width="4.87" height="20.33"/>
			<rect x="211.62" y="480.03" class="st0" width="4.87" height="3.98"/>
			<rect x="218.54" y="480.03" class="st0" width="4.87" height="3.98"/>
			<path class="st0" d="M225.07,495.89c0,0.8-0.31,1.28-0.92,1.44h-13.04c-0.62-0.16-0.92-0.64-0.92-1.44v-9.49h-4.87v10.85
				c0,1.37,0.19,2.39,0.56,3.08c0.38,0.69,1.02,1.14,1.94,1.36l-0.02-0.02c0.75,0.16,1.71,0.24,2.87,0.24h13.9
				c0.62,0,1.16-0.02,1.63-0.06c0.47-0.04,0.88-0.1,1.22-0.16h-0.02c0.47-0.11,0.86-0.28,1.17-0.5c0.32-0.22,0.57-0.51,0.77-0.87
				c0.2-0.36,0.34-0.79,0.43-1.3c0.09-0.51,0.13-1.1,0.13-1.77V486.4h-4.85V495.89z"/>
			<path class="st0" d="M243.16,495.89c0,0.8-0.31,1.28-0.92,1.44h-3.65v-15.74h-4.87v15.74h-1.83v4.58h10.8
				c1.19,0,2.14-0.07,2.85-0.22h-0.02c0.45-0.11,0.84-0.28,1.16-0.5c0.32-0.22,0.58-0.51,0.77-0.87c0.19-0.36,0.33-0.79,0.42-1.3
				c0.09-0.51,0.13-1.1,0.13-1.77v-15.7h-4.85V495.89z"/>
			<path class="st0" d="M253.8,486.45c-0.44,0.04-0.82,0.09-1.15,0.16c-0.96,0.16-1.64,0.58-2.05,1.27
				c-0.41,0.68-0.62,1.73-0.62,3.13v6.25c0,0.7,0.05,1.31,0.16,1.82c0.11,0.51,0.27,0.95,0.49,1.31c0.22,0.36,0.5,0.65,0.84,0.86
				c0.34,0.21,0.74,0.38,1.19,0.51c0.32,0.07,0.69,0.11,1.13,0.13c0.44,0.02,0.93,0.03,1.48,0.03h6.63v1.24
				c0,0.86-0.3,1.36-0.88,1.48h-3.06v4.54h3.49c0.56,0,1.06-0.01,1.49-0.03c0.43-0.02,0.8-0.07,1.12-0.13
				c0.92-0.23,1.6-0.69,2.04-1.37c0.44-0.68,0.67-1.72,0.67-3.1V486.4h-11.5C254.73,486.4,254.24,486.41,253.8,486.45z
				 M255.95,490.97c0.24-0.02,0.57-0.03,0.96-0.03h4.99v6.39h-5.87c-0.79,0-1.19-0.48-1.19-1.44v-3.47c0-0.39,0.06-0.71,0.16-0.95
				c0.11-0.24,0.25-0.38,0.41-0.44C255.53,491.02,255.71,490.99,255.95,490.97z"/>
			<rect x="287.72" y="480.03" class="st0" width="4.89" height="3.98"/>
			<rect x="280.82" y="480.03" class="st0" width="4.89" height="3.98"/>
			<path class="st0" d="M330.7,481.58v14.32c0,0.8-0.32,1.28-0.92,1.43h-1.38v0.05h-1.55c-0.56-0.19-0.85-0.7-0.85-1.48v-14.34
				h-4.87v14.29c0,0.73-0.29,1.19-0.87,1.41c-0.07,0.02-0.15,0.02-0.27,0.05c-0.12,0-0.24,0.02-0.41,0.02
				c-0.15,0.02-0.31,0.02-0.48,0.02c-0.12,0.02-0.27,0.02-0.39,0.02v-0.05h-1.77V491c0-1.43-0.22-2.47-0.65-3.15
				c-0.44-0.68-1.16-1.09-2.18-1.26c-0.34-0.07-0.73-0.12-1.14-0.15s-0.87-0.05-1.33-0.05h-6.74c-0.58,0-1.09,0.02-1.53,0.05
				c-0.46,0.02-0.85,0.07-1.14,0.15c-0.94,0.17-1.65,0.61-2.06,1.28c-0.41,0.7-0.63,1.74-0.63,3.13v4.85c0,0.73-0.29,1.19-0.87,1.41
				c-0.12,0.02-0.34,0.05-0.65,0.07c-0.17,0.01-0.32,0.02-0.49,0.02v-0.02h-2.49V491c0-1.43-0.22-2.47-0.65-3.15
				c-0.44-0.68-1.16-1.09-2.18-1.26c-0.36-0.07-0.75-0.12-1.16-0.15c-0.41-0.02-0.87-0.05-1.33-0.05h-6.15
				c-0.58,0-1.09,0.02-1.53,0.05s-0.82,0.07-1.14,0.15c-0.94,0.17-1.62,0.61-2.04,1.28c-0.44,0.68-0.63,1.72-0.63,3.13v6.32h-2.93
				c-0.61-0.15-0.92-0.63-0.92-1.43v-14.32h-4.87v15.68c0,0.68,0.05,1.26,0.15,1.77c0.1,0.51,0.24,0.94,0.44,1.31
				c0.19,0.36,0.46,0.65,0.78,0.87c0.32,0.22,0.68,0.39,1.16,0.48c0.34,0.07,0.75,0.12,1.21,0.17c0.48,0.05,1.02,0.05,1.65,0.05
				h22.17h0.48h1.55c0.65,0,1.21,0,1.65-0.02c0.44-0.02,0.78-0.07,1.07-0.12c0.44-0.07,0.85-0.29,1.19-0.68
				c0.34-0.39,0.63-0.87,0.85-1.5c0.63,1.55,1.7,2.33,3.22,2.33h15.29c0.44-0.02,0.78-0.07,0.99-0.12c0.44-0.1,0.85-0.31,1.19-0.7
				c0.36-0.39,0.65-0.87,0.87-1.5c0.61,1.48,1.62,2.2,3,2.3v0.02h1.82c1.21,0,2.16-0.07,2.83-0.22c0.46-0.1,0.85-0.27,1.16-0.48
				c0.31-0.22,0.56-0.51,0.78-0.87c0.19-0.36,0.34-0.8,0.41-1.31c0.1-0.51,0.15-1.09,0.15-1.77v-15.68H330.7z M290.16,495.92
				c0,0.41-0.05,0.7-0.15,0.9c-0.17,0.29-0.51,0.46-0.99,0.51h-5.14c-0.19-0.02-0.31-0.1-0.44-0.15c-0.1-0.07-0.17-0.15-0.22-0.27
				c-0.07-0.1-0.1-0.22-0.12-0.39c-0.02-0.15-0.02-0.36-0.02-0.61v-3.49c0-0.92,0.41-1.43,1.24-1.5h4.97
				c0.29,0.12,0.51,0.29,0.65,0.53c0.15,0.24,0.22,0.56,0.22,0.97V495.92z M312.06,497.33l-6.78,0.05
				c-0.29-0.12-0.51-0.29-0.65-0.51c-0.17-0.24-0.24-0.56-0.24-0.97v-3.46c0-0.92,0.44-1.43,1.26-1.5h5.6
				c0.56,0.22,0.82,0.7,0.82,1.5V497.33z"/>
		</g>
		<g>
			<rect x="225.9" y="153.75" class="st0" width="4.81" height="3.97"/>
			<rect x="232.73" y="153.75" class="st0" width="4.81" height="3.97"/>
			<path class="st0" d="M291.47,169.6c0,0.41-0.07,0.73-0.22,0.97c-0.15,0.24-0.37,0.41-0.65,0.51h-3.25
				c-0.57-0.19-0.85-0.68-0.85-1.48v-9.49h-4.83v9.45c0,0.75-0.28,1.22-0.83,1.42c-0.04,0.01-0.11,0.02-0.2,0.04
				c-0.1,0.01-0.25,0.02-0.48,0.03c-0.22,0.01-0.53,0.01-0.93,0.02c-0.4,0.01-0.91,0.01-1.53,0.01c-0.31-0.11-0.54-0.28-0.68-0.51
				c-0.14-0.24-0.21-0.56-0.21-0.97v-9.49h-4.83v9.45c0,0.75-0.28,1.22-0.85,1.42h0.02c-0.07,0.02-0.19,0.05-0.37,0.07
				c-0.18,0.02-0.42,0.03-0.73,0.03h-1.64c-0.58-0.2-0.87-0.7-0.87-1.48v-9.49h-4.81v9.45c0,0.38-0.06,0.68-0.18,0.9
				c-0.12,0.23-0.32,0.39-0.61,0.5c-0.08,0.01-0.22,0.02-0.4,0.04c-0.19,0.01-0.39,0.02-0.6,0.04c-0.21,0.01-0.41,0.02-0.61,0.03
				c-0.2,0.01-0.36,0.01-0.48,0.01h-1.24c-0.57-0.19-0.85-0.68-0.85-1.48v-9.49h-4.83v9.45c0,0.75-0.28,1.22-0.83,1.42
				c-0.04,0.01-0.11,0.02-0.2,0.04c-0.1,0.01-0.25,0.02-0.48,0.03c-0.22,0.01-0.53,0.01-0.93,0.02c-0.4,0.01-0.91,0.01-1.53,0.01
				c-0.31-0.11-0.54-0.28-0.68-0.51c-0.14-0.24-0.21-0.56-0.21-0.97v-9.49h-4.83v9.45c0,0.75-0.28,1.22-0.85,1.42h0.02
				c-0.07,0.02-0.19,0.05-0.37,0.07c-0.15,0.02-0.38,0.02-0.63,0.03v-0.04h-1.87v-10.93h-11.36c-0.58,0-1.09,0.02-1.52,0.05
				c-0.43,0.03-0.8,0.09-1.09,0.15c-0.96,0.17-1.64,0.59-2.05,1.28c-0.4,0.69-0.61,1.73-0.61,3.12v6.29c0,0.72,0.05,1.33,0.15,1.85
				c0.1,0.52,0.27,0.96,0.5,1.31c0.23,0.35,0.52,0.64,0.87,0.85c0.35,0.22,0.78,0.38,1.3,0.49h-0.02c0.54,0.08,1.37,0.12,2.47,0.12
				h13.12h0.1h1.36c0.65,0,1.19-0.01,1.63-0.03c0.44-0.02,0.79-0.07,1.06-0.13c0.43-0.07,0.82-0.29,1.16-0.67
				c0.34-0.38,0.62-0.88,0.85-1.5c0.64,1.55,1.7,2.33,3.18,2.33h1.82c0.66,0,1.21-0.01,1.65-0.02c0.44-0.01,0.76-0.05,0.96-0.12
				c0.46-0.08,0.86-0.31,1.21-0.69c0.35-0.38,0.63-0.88,0.86-1.5c0.64,1.55,1.7,2.33,3.2,2.33h1.89c0.65,0,1.19-0.01,1.62-0.03
				c0.43-0.02,0.78-0.07,1.05-0.13c0.45-0.07,0.84-0.29,1.18-0.67c0.34-0.38,0.62-0.88,0.85-1.5c0.62,1.52,1.65,2.28,3.08,2.32v0.01
				h0.1h0.08h1.28c0.65,0,1.19-0.01,1.63-0.03c0.44-0.02,0.79-0.07,1.06-0.13c0.43-0.07,0.82-0.29,1.15-0.67
				c0.34-0.38,0.62-0.88,0.85-1.5c0.64,1.55,1.69,2.33,3.18,2.33h1.82c0.65,0,1.2-0.01,1.64-0.02c0.45-0.01,0.77-0.05,0.97-0.12
				c0.45-0.08,0.85-0.31,1.2-0.69c0.35-0.38,0.64-0.88,0.87-1.5c0.64,1.55,1.7,2.33,3.18,2.33h1.89c1.24,0,2.16-0.07,2.76-0.23
				c0.89-0.22,1.53-0.67,1.91-1.35c0.38-0.68,0.57-1.69,0.57-3.03v-10.91h-4.75V169.6z M234.74,171.09h-4.87
				c-1.16,0-1.82-0.19-1.97-0.56c-0.09-0.19-0.14-0.48-0.14-0.87v-3.51c0-0.38,0.01-0.66,0.05-0.86c0.03-0.2,0.11-0.34,0.22-0.44
				c0.12-0.1,0.28-0.15,0.51-0.16c0.22-0.01,0.53-0.02,0.92-0.02h5.27V171.09z"/>
			<path class="st0" d="M308.85,158.72c0.46-0.07,0.78-0.22,0.96-0.45c0.18-0.23,0.27-0.59,0.27-1.07v-0.96
				c0-0.54-0.22-0.95-0.65-1.22c-0.38-0.23-0.83-0.34-1.36-0.34h-2.41c-0.34,0-0.53-0.01-0.57-0.02c-0.08-0.04-0.12-0.19-0.12-0.45
				c0-0.21,0.1-0.3,0.3-0.3h4.02v-1.66H305c-0.45,0-0.82,0.02-1.14,0.06c-0.45,0.07-0.76,0.21-0.95,0.44
				c-0.19,0.22-0.28,0.58-0.28,1.06v1.16c0,0.49,0.27,0.84,0.83,1.07c0.43,0.19,0.91,0.28,1.44,0.28h2.51c0.18,0,0.28,0.03,0.33,0.1
				c0,0.04,0,0.17,0,0.37s-0.1,0.31-0.28,0.32h-4.83v1.64h5.11C308.22,158.76,308.6,158.74,308.85,158.72z"/>
			<path class="st0" d="M335.1,161.58c-0.44-0.68-1.15-1.09-2.14-1.26c-0.35-0.06-0.73-0.12-1.14-0.15
				c-0.41-0.03-0.85-0.05-1.34-0.05h-6.65c-0.55,0-1.05,0.02-1.49,0.05c-0.44,0.03-0.81,0.09-1.13,0.15
				c-0.95,0.17-1.63,0.59-2.04,1.29c-0.41,0.7-0.62,1.74-0.62,3.11v4.84c0,0.73-0.29,1.19-0.85,1.4c-0.12,0.02-0.34,0.05-0.67,0.07
				c-0.29,0.02-0.55,0.03-0.81,0.04v-0.03h-1.68v-10.93H303.2c-0.54,0-1.03,0.02-1.46,0.05c-0.43,0.03-0.81,0.09-1.14,0.15
				c-0.47,0.08-0.88,0.23-1.22,0.43c-0.34,0.21-0.62,0.49-0.83,0.84s-0.37,0.79-0.47,1.31c-0.1,0.51-0.14,1.12-0.14,1.82v6.25
				c0,0.7,0.05,1.31,0.16,1.82c0.11,0.51,0.27,0.95,0.5,1.31c0.22,0.36,0.5,0.64,0.84,0.86s0.73,0.39,1.18,0.51
				c0.31,0.06,0.68,0.11,1.12,0.13c0.43,0.02,0.92,0.03,1.46,0.03h6.55v1.24c0,0.86-0.3,1.36-0.89,1.48h-3v4.54h3.45
				c0.55,0,1.04-0.01,1.47-0.03c0.43-0.02,0.79-0.06,1.11-0.13c0.9-0.23,1.58-0.69,2.02-1.37c0.44-0.68,0.66-1.71,0.66-3.09v-2.63
				h1.54h0.14h1.87c0.65,0,1.19-0.01,1.62-0.03c0.43-0.02,0.78-0.07,1.05-0.13c0.45-0.07,0.84-0.29,1.18-0.67
				c0.34-0.38,0.62-0.88,0.85-1.5c0.64,1.55,1.69,2.33,3.16,2.33h4.52c0.55,0,1.05-0.01,1.48-0.03c0.43-0.02,0.8-0.07,1.11-0.13
				c0.91-0.23,1.58-0.69,2.02-1.37c0.44-0.69,0.66-1.72,0.66-3.09v-6.29C335.76,163.3,335.54,162.25,335.1,161.58z M309.75,171.05
				h-5.8c-0.78,0-1.18-0.48-1.18-1.44v-3.47c0-0.81,0.19-1.27,0.57-1.38c0.11-0.02,0.28-0.05,0.53-0.07
				c0.24-0.02,0.56-0.03,0.95-0.03h4.93V171.05z M330.94,169.65c0,0.42-0.04,0.72-0.12,0.89c-0.1,0.22-0.3,0.36-0.62,0.44
				c-0.32,0.07-0.76,0.11-1.31,0.11h-4.64c-0.3-0.11-0.52-0.28-0.67-0.51c-0.15-0.24-0.22-0.56-0.22-0.97v-3.47
				c0-0.92,0.41-1.41,1.24-1.48h5.52c0.55,0.21,0.83,0.7,0.83,1.48V169.65z"/>
		</g>
		<rect x="310.53" y="450.12" class="st1" width="24.75" height="18.81"/>
		<rect x="188.43" y="241.49" class="st2" width="0.04" height="1.44"/>
		<rect x="108.04" y="450.12" class="st1" width="194.69" height="18.81"/>
		<path class="st2" d="M188.43,241.49v1.44h0.04v-1.44H188.43z"/>
		<path class="st3" d="M287.58,187.05v50.26h-18.03v-28.02H221.4v28.02h-15.21V117.29V95.74V82.71l114.31,43.46v23.32l15.26,0
			v-32.98l-15.09-6.03l-3.21-1.31L206.19,64.83l-17.78-7.08v37.99v21.55v136.33h0.05v1.41h147.22v-67.99H287.58z M254.39,237.31
			h-17.83v-12.9h17.83V237.31z M320.57,237.31H302.7v-35.1h17.88V237.31z"/>
		<rect x="249.53" y="184.36" class="st3" width="20.01" height="18.41"/>
		<rect x="221.94" y="184.36" class="st3" width="19.74" height="18.41"/>
		<polygon class="st3" points="162.07,305.54 162.07,319.14 162.07,322.83 162.07,339.34 122.85,339.34 122.85,322.83 
			122.85,321.12 122.85,305.54 107.72,305.54 107.72,321.12 107.72,322.83 107.72,354.47 177.2,354.47 177.2,322.83 177.2,319.14 
			177.2,305.54 		"/>
		<polygon class="st3" points="122.84,178.43 162.07,139.24 162.07,295.47 177.2,295.47 177.2,124.11 177.2,102.66 162.07,117.79 
			122.84,157.06 107.71,172.19 107.71,193.56 107.71,295.47 122.84,295.47 		"/>
		<rect x="132.6" y="290.83" class="st3" width="19.73" height="18.41"/>
		<polygon class="st1" points="243.68,364.28 243.68,406.75 258.81,406.75 258.81,380.08 320.49,380.08 320.5,419.07 320.49,419.07 
			320.49,425.18 230.99,425.18 230.99,423.1 230.99,419.07 230.99,364.28 188.41,364.28 188.41,407.69 202.8,407.69 202.8,380.08 
			215.86,380.08 215.86,419.07 215.86,423.1 215.86,425.18 188.42,425.17 188.41,440.3 215.86,440.31 215.86,440.31 335.63,440.31 
			335.63,428.24 335.63,419.07 335.63,364.28 		"/>
		<path class="st1" d="M128.19,390.98h-20.57v49.71h22.25h0.68h46.66v-49.71h-46.66H128.19z M162.07,425.56h-31.53h-0.68h-7.12
			v-19.45h5.44h2.36h31.53V425.56z"/>
		<rect x="150.98" y="364.28" class="st1" width="26.18" height="22.32"/>
		<rect x="107.72" y="364.28" class="st1" width="28" height="22.32"/>
		<path class="st3" d="M335.76,264.81l-47.86,0v24.97v4.33v32.22h32.36v13.02h-32.44v15.13l47.94,0V264.81z M320.48,308.37
			l-18.07,0.21v-14.48v-4.33v-9.84h18.07V308.37z"/>
		<path class="st3" d="M236,346.91v-15.13h24.7h5.79h11.95v-66.97H260.7v49.23H236v-19.94v-4.33v-24.97h-47.49v24.97v4.33v32.22
			h32.36v13.02h-32.44v15.13h47.46L236,346.91z M220.87,289.78v4.33v14.48h-17.85v-14.48v-4.33v-9.84h17.85V289.78z"/>
	</g>
</g>
<g id="Layer_2">
</g>
<g id="Layer_3">
</g>
</svg>
